<svg xmlns="http://www.w3.org/2000/svg" viewBox="0 0 303.68 411.37"><title>fflogo</title><ellipse cx="149.2" cy="323.25" rx="138.22" ry="15.23" style="fill:#abaaaa;opacity:0.25"/><ellipse cx="149.2" cy="320.25" rx="107.98" ry="11.9" style="fill:#abaaaa;opacity:0.5"/><ellipse cx="149.2" cy="318.25" rx="79.39" ry="8.75" style="fill:#abaaaa;opacity:0.75"/><path d="M145.69,319.45c-53.12,0-99.8-17.71-113.51-43.06l-0.24-.45v-16.7C19,250.89,11.71,241.17,10.66,231a41.41,41.41,0,0,1-7.47-23.29c0-9.71,3.59-19,10.66-27.59V113.81C13.86,52.16,73,2,145.69,2S277.52,52.16,277.52,113.81v89.54c1.12,1.49,3.33,5.34,3.33,12.65v12.5c0,11-7.4,21.66-21.42,30.74v16.7l-0.24.45C245.49,301.74,198.81,319.45,145.69,319.45Z" style="fill:#fff"/><path d="M145.69,4C217.4,4,275.52,53.16,275.52,113.81v90.27s3.33,3.25,3.33,11.92v12.5c0,10.93-7.87,21.11-21.42,29.64v17.29c-13.08,24.18-58.15,42-111.75,42S47,299.62,33.94,275.44V258.15c-12.78-8-20.5-17.57-21.33-27.8a39.73,39.73,0,0,1-7.41-22.6c0-9.66,3.84-18.79,10.66-26.87V113.81C15.86,53.16,74,4,145.69,4m0-4C110.07,0,76.54,11.76,51.3,33.11c-25.44,21.51-39.44,50.17-39.44,80.7v65.64c-7,8.71-10.66,18.47-10.66,28.3a43.24,43.24,0,0,0,7.53,24c1.26,10.32,8.56,20.14,21.21,28.57v16.13l0.48,0.89c6.95,12.85,21.74,23.88,42.77,31.91s46,12.2,72.5,12.2,51.58-4.22,72.5-12.2S254,290.19,261,277.34l0.48-.89V260.32c14-9.34,21.42-20.31,21.42-31.82V216c0-7-2-11.2-3.33-13.26V113.81c0-30.53-14-59.19-39.44-80.7C214.84,11.76,181.32,0,145.69,0h0Z" style="fill:#010101"/><path d="M275.69,109.46c0-50.69-58.21-91.79-130-91.79s-130,41.1-130,91.79c0,0.35,0,.69,0,1h0v80.83c0,9.57,58.2,17.33,130,17.33s130-7.76,130-17.33V110.5h0C275.68,110.15,275.69,109.81,275.69,109.46Z" style="fill:#262626"/><path d="M52,203.34c23.65,3.28,56.9,5.32,93.73,5.32,39,0,73.9-2.28,97.72-5.9V127.3h0c0-.28,0-0.55,0-0.83,0-23.4-14.29-44.24-36.55-57.68a54.7,54.7,0,0,0,7.42-25.62c-19-9.78-41.95-15.49-66.6-15.49-27.08,0-52,6.89-72.11,18.5a55.28,55.28,0,0,0,8.84,25.24C64.52,84.85,52,104.53,52,126.46c0,0.28,0,.55,0,0.83h0v76Z"/><path d="M163,253.83a18.48,18.48,0,0,0,3-3.81V232.69a18.48,18.48,0,0,0-3-3.81v24.95Z" style="fill:#010101"/><path d="M157.84,257.5a20.13,20.13,0,0,0,3-1.82V227a20.16,20.16,0,0,0-3-1.82V257.5Z" style="fill:#010101"/><path d="M151.84,259.38a21,21,0,0,0,3-.7V224a21.28,21.28,0,0,0-3-.7v36Z" style="fill:#010101"/><path d="M142,258.68a21,21,0,0,0,3,.7v-36a21.27,21.27,0,0,0-3,.7v34.65Z" style="fill:#010101"/><path d="M136.84,256.25a20.48,20.48,0,0,0,3,1.62v-33a20.47,20.47,0,0,0-3,1.62v29.78Z" style="fill:#010101"/><path d="M130.84,250a18.47,18.47,0,0,0,3,3.81V228.89a18.49,18.49,0,0,0-3,3.81V250Z" style="fill:#010101"/><path d="M33.44,258.5c23.74,15,65.42,24.85,112.25,24.85s88.51-9.89,112.25-24.85" style="fill:none;stroke:#010101;stroke-miterlimit:10"/><path d="M15.86,195.08S21.78,214,148.11,214c111,0,127.83-18.92,127.83-18.92" style="fill:none;stroke:#010101;stroke-miterlimit:10"/><circle cx="196.44" cy="237.67" r="6" style="fill:#ec1a35"/><circle cx="215.32" cy="233.66" r="5.42" style="fill:#00abc2"/><circle cx="239.86" cy="225.22" r="4.03" style="fill:#00a651"/><path d="M84.63,225.69A27.86,27.86,0,0,0,71,229.26l0.14,0c-2.1,1.63-9.26,7.6-2.65,9,4.38,1,11.7,1.36,17.17,1.54a29,29,0,0,0-3.06,21.43,280.67,280.67,0,0,0,28.2,4.2,29,29,0,0,0,2.2-11.1A28.51,28.51,0,0,0,84.63,225.69Z" style="fill:#ec1a35"/><path d="M85.61,239.87c-5.47-.17-12.79-0.58-17.17-1.54-6.61-1.44.54-7.41,2.65-9-25.27-6.19-45.37-18.52-55.24-34l-0.91-14.46a40.48,40.48,0,0,0-9.75,26.87c0,28.68,33.85,52.65,79.08,58.58A29,29,0,0,1,85.61,239.87Z" style="fill:none;stroke:#010101;stroke-miterlimit:10;stroke-width:2px"/><path d="M30,210.43s-15.27,4.44-14.27,24" style="fill:none;stroke:#010101;stroke-miterlimit:10"/><path d="M36.71,215.17s-14.35,5.49-13.64,26.68" style="fill:none;stroke:#010101;stroke-miterlimit:10"/><path d="M44.69,219.69a26.81,26.81,0,0,0-11.33,29.63" style="fill:none;stroke:#010101;stroke-miterlimit:10"/><path d="M53.31,223.6s-15.95,10.91-7.91,32.07" style="fill:none;stroke:#010101;stroke-miterlimit:10"/><path d="M62.63,226.94s-16,12.7-6.78,32.84" style="fill:none;stroke:#010101;stroke-miterlimit:10"/><path d="M24.87,206.08s-14.76,1.74-15.52,18.77" style="fill:none;stroke:#010101;stroke-miterlimit:10"/><path d="M68.44,238.33s-6.88,9.6-1.54,24.71" style="fill:none;stroke:#010101;stroke-miterlimit:10"/><path d="M80.31,239.64s-7.89,12.09-1.38,25.73" style="fill:none;stroke:#010101;stroke-miterlimit:10"/><path d="M19.95,200.89S7.6,199.84,5.74,214" style="fill:none;stroke:#010101;stroke-miterlimit:10"/><path d="M15.86,196.34s-8-1.46-10.12,6.2" style="fill:none;stroke:#010101;stroke-miterlimit:10"/><path d="M15.86,191.17s-4.16-1.57-8,2.72" style="fill:none;stroke:#010101;stroke-miterlimit:10"/><path d="M267.44,197.42V120.5h0c0-.35,0-0.69,0-1,0-50.69-53.62-91.79-119.75-91.79S27.94,68.76,27.94,119.46c0,0.35,0,.69,0,1h0v78.18" style="fill:none;stroke:#000;stroke-miterlimit:10"/><path d="M82.58,261.42c16.55,3.46,37.23,5.58,63.11,5.58,140.5,0,130.25-62.92,130.25-62.92" style="fill:none;stroke:#010101;stroke-miterlimit:10"/><path d="M84.58,266.42c16.55,3.46,37.23,5.58,63.11,5.58,140.5,0,130.25-62.92,130.25-62.92" style="fill:none;stroke:#010101;stroke-miterlimit:10"/><path d="M172.44,102.67s16.33-7,26.67-12.67c0,0,16.33,23.67,19.67,45.67,0,0-16,7-38.67,8A179,179,0,0,0,172.44,102.67Z" style="fill:#fff;opacity:0.1"/><text transform="translate(0 397.51)" style="font-size:48px;font-family:Futura">futu<tspan x="79.69" y="0">r</tspan><tspan x="97.31" y="0">e f</tspan><tspan x="152.93" y="0">r</tspan><tspan x="171.61" y="0">iend</tspan><tspan x="265.22" y="0">l</tspan><tspan x="277.59" y="0">y</tspan></text></svg>